<?xml version="1.0" encoding="utf-8"?>
<!-- Generator: Adobe Illustrator 19.0.0, SVG Export Plug-In . SVG Version: 6.00 Build 0)  -->
<svg version="1.1" id="Capa_1" xmlns="http://www.w3.org/2000/svg" xmlns:xlink="http://www.w3.org/1999/xlink" x="0px" y="0px"
	 viewBox="-49 141 512 512" style="enable-background:new -49 141 512 512;" xml:space="preserve">
<style type="text/css">
	.st0{fill:#A58260;}
	.st1{fill:#8C6B50;}
	.st2{fill:#FFDF65;}
	.st3{fill:#FFCD2C;}
	.st4{fill:#6E563D;}
	.st5{fill:#604B35;}
	.st6{fill:#EDA247;}
	.st7{fill:#FFAD47;}
	.st8{fill:#2E71A7;}
</style>
<path class="st0" d="M392.4,334.4H21.6c-18.2,0-33,14.8-33,33v91.7c0,4.2,3.4,7.5,7.5,7.5h421.7c4.2,0,7.5-3.4,7.5-7.5v-91.7
	C425.4,349.2,410.6,334.4,392.4,334.4z"/>
<path class="st1" d="M392.4,334.4h-35.2c18.2,0,33,14.8,33,33v91.7c0,4.2-3.4,7.5-7.5,7.5h35.2c4.2,0,7.5-3.4,7.5-7.5v-91.7
	C425.4,349.2,410.6,334.4,392.4,334.4z"/>
<path class="st2" d="M149.4,401.6H70.2c-18.1,0-32.8,14.7-32.8,32.8v24.7c0,4.2,3.4,7.5,7.5,7.5h129.7c4.2,0,7.5-3.4,7.5-7.5v-24.7
	C182.1,416.3,167.4,401.6,149.4,401.6z"/>
<path class="st2" d="M343.8,401.6h-79.1c-18.1,0-32.8,14.7-32.8,32.8v24.7c0,4.2,3.4,7.5,7.5,7.5h129.7c4.2,0,7.5-3.4,7.5-7.5v-24.7
	C376.6,416.3,361.9,401.6,343.8,401.6z"/>
<path class="st3" d="M149.4,401.6h-33.7c18.1,0,32.8,14.7,32.8,32.8v24.7c0,4.2-3.4,7.5-7.5,7.5h33.7c4.2,0,7.5-3.4,7.5-7.5v-24.7
	C182.1,416.3,167.4,401.6,149.4,401.6z"/>
<path class="st3" d="M343.8,401.6h-33.7c18.1,0,32.8,14.7,32.8,32.8v24.7c0,4.2-3.4,7.5-7.5,7.5h33.7c4.2,0,7.5-3.4,7.5-7.5v-24.7
	C376.6,416.3,361.9,401.6,343.8,401.6z"/>
<path class="st4" d="M455.5,506h-497c-4.2,0-7.5,3.4-7.5,7.5v93.4c0,4.2,3.4,7.5,7.5,7.5h497c4.2,0,7.5-3.4,7.5-7.5v-93.4
	C463,509.4,459.6,506,455.5,506z"/>
<path class="st5" d="M455.5,506h-27.1v7.5v93.4c0,4.2-3.4,7.5-7.5,7.5h34.6c4.2,0,7.5-3.4,7.5-7.5v-93.4
	C463,509.4,459.6,506,455.5,506z"/>
<path class="st6" d="M420.7,451.6H-6.7c-23.3,0-42.3,19-42.3,42.3v19.6c0,4.2,3.4,7.5,7.5,7.5h497c4.2,0,7.5-3.4,7.5-7.5v-19.6
	C463,470.6,444,451.6,420.7,451.6z"/>
<path class="st7" d="M420.7,451.6h-34.6c23.3,0,42.3,19,42.3,42.3v19.6v7.5h27.1c4.2,0,7.5-3.4,7.5-7.5v-19.6
	C463,470.6,444,451.6,420.7,451.6z"/>
<path class="st8" d="M187.2,310.1h-40.3c-3,0-5.7-1.8-6.9-4.5c-1.2-2.7-0.7-5.9,1.3-8.1l28.7-31.3h-19.4c-4.2,0-7.5-3.4-7.5-7.5
	s3.4-7.5,7.5-7.5h36.5c3,0,5.7,1.8,6.9,4.5c1.2,2.7,0.7,5.9-1.3,8.1L164,295.1h23.2c4.2,0,7.5,3.4,7.5,7.5
	C194.7,306.8,191.3,310.1,187.2,310.1z"/>
<path class="st8" d="M299.2,265.4h-64.9c-3,0-5.7-1.8-6.9-4.5c-1.2-2.7-0.7-5.9,1.3-8.1l53.3-58.2h-44c-4.2,0-7.5-3.4-7.5-7.5
	c0-4.2,3.4-7.5,7.5-7.5h61.1c3,0,5.7,1.8,6.9,4.5c1.2,2.7,0.7,5.9-1.3,8.1l-53.3,58.2h47.8c4.2,0,7.5,3.4,7.5,7.5
	C306.7,262,303.3,265.4,299.2,265.4z"/>
</svg>
