<?xml version="1.0" encoding="utf-8"?>
<!-- Generator: Adobe Illustrator 19.0.0, SVG Export Plug-In . SVG Version: 6.00 Build 0)  -->
<svg version="1.1" id="Capa_1" xmlns="http://www.w3.org/2000/svg" xmlns:xlink="http://www.w3.org/1999/xlink" x="0px" y="0px"
	 viewBox="-275 367 60 60" style="enable-background:new -275 367 60 60;" xml:space="preserve">
<style type="text/css">
	.st0{fill:#B02721;}
	.st1{fill:#8E2727;}
	.st2{fill:#E0E1E2;}
	.st3{fill:#2E71A7;}
	.st4{fill:#C4D9EC;}
</style>
<path class="st0" d="M-221.2,395l-23.8-18.3l-23.8,18.3c-1.2,0.9-3,0.8-4-0.3l0,0c-1.2-1.3-1-3.3,0.4-4.4l25.4-19.9l2-1.9l2,1.9
	l25.4,19.9c1.4,1.1,1.5,3.1,0.3,4.4l0,0C-218.2,395.8-220,396-221.2,395z"/>
<path class="st1" d="M-221.2,395l-23.8-18.3l-23.8,18.3c-1.2,0.9-3,0.8-4-0.3l0,0c-1.2-1.3-1-3.3,0.4-4.4l25.4-19.9l2-1.9l2,1.9
	l25.4,19.9c1.4,1.1,1.5,3.1,0.3,4.4l0,0C-218.2,395.8-220,396-221.2,395z"/>
<polygon class="st2" points="-245,376.7 -268,394.4 -268,394.5 -268,424.5 -222,424.5 -222,394.5 -222,394.4 "/>
<g>
	<path class="st2" d="M-216,414.5c-0.6,0-1,0.4-1,1v1h-1v-1c0-0.6-0.4-1-1-1s-1,0.4-1,1v1h-2c-0.6,0-1,0.4-1,1s0.4,1,1,1h2v3h-2
		c-0.6,0-1,0.4-1,1s0.4,1,1,1h2v1c0,0.6,0.4,1,1,1s1-0.4,1-1v-1h1v1c0,0.6,0.4,1,1,1s1-0.4,1-1v-9C-215,414.9-215.4,414.5-216,414.5
		z M-218,421.5v-3h1v3H-218z"/>
	<path class="st2" d="M-268,418.5c0.6,0,1-0.4,1-1s-0.4-1-1-1h-2v-1c0-0.6-0.4-1-1-1s-1,0.4-1,1v1h-1v-1c0-0.6-0.4-1-1-1s-1,0.4-1,1
		v9c0,0.6,0.4,1,1,1s1-0.4,1-1v-1h1v1c0,0.6,0.4,1,1,1s1-0.4,1-1v-1h2c0.6,0,1-0.4,1-1s-0.4-1-1-1h-2v-3H-268z M-272,421.5h-1v-3h1
		V421.5z"/>
</g>
<rect x="-260" y="393.5" class="st3" width="12" height="8"/>
<rect x="-260" y="407.5" class="st3" width="12" height="10"/>
<rect x="-242" y="393.5" class="st3" width="12" height="8"/>
<rect x="-242" y="407.5" class="st3" width="12" height="17"/>
<polygon class="st4" points="-253,411.5 -253,407.5 -255,407.5 -255,411.5 -260,411.5 -260,413.5 -255,413.5 -255,417.5 -253,417.5 
	-253,413.5 -248,413.5 -248,411.5 "/>
</svg>
