<svg xmlns="http://www.w3.org/2000/svg" width="139.316" height="101.979" viewBox="0 0 139.316 101.979">
    <defs>
        <style>
            .cls-1,.cls-22,.cls-8{fill:none}.cls-11,.cls-2{fill:#c4d9ec}.cls-3,.cls-4,.cls-5{fill:#f0ebe3}.cls-11,.cls-3{opacity:.55}.cls-4{opacity:.5}.cls-14,.cls-6{opacity:.25}.cls-7,.cls-9{fill:#2b71a7}.cls-22,.cls-7,.cls-8{stroke:#fff}.cls-7,.cls-8{stroke-linecap:round;stroke-linejoin:round}.cls-10{fill:#fff}.cls-12{fill:#eda247}.cls-13,.cls-16{fill:#8e2626}.cls-13{opacity:.75}.cls-14{fill:#5890f4}.cls-15{fill:#ffccb0}.cls-17{fill:#1b110f}.cls-18{fill:#763b2f}.cls-19{fill:#db856e}.cls-20{fill:#acc9f9}.cls-21{fill:#ed9c80}.cls-22{stroke-miterlimit:10}.cls-23{fill:url(#linear-gradient)}.cls-24{clip-path:url(#clip-path)}
        </style>
        <linearGradient id="linear-gradient" x2="1" y1=".5" y2=".5" gradientUnits="objectBoundingBox">
            <stop offset="0" stop-color="#eda247"/>
            <stop offset="1" stop-color="#8e2727"/>
        </linearGradient>
        <clipPath id="clip-path">
            <path id="Trazado_824" d="M349.63 217.814l5.178-4.924h-10.356l5.178 4.924" class="cls-1" data-name="Trazado 824" transform="translate(-344.452 -212.89)"/>
        </clipPath>
    </defs>
    <g id="Grupo_87" data-name="Grupo 87" transform="translate(-298.425 -126.369)">
        <g id="Grupo_38" data-name="Grupo 38" transform="translate(298.425 126.369)">
            <g id="Grupo_35" data-name="Grupo 35">
                <g id="Grupo_86" data-name="Grupo 86">
                    <path id="Trazado_733" d="M381.213 126.519c-.2.158-9.353 5.856-15.879 10.512-7.624 5.439-17.567 6.629-26.295 9.451-7.763 2.509-16.341 6.885-19.191 15.09-1.99 5.729-2.326 17.642-11.438 23.061-3.068 1.824-8.545 3.546-9.643 7.5-1.155 4.163.549 7.87 6.166 9.615 5.252 1.633 13.15-.753 23.61 0 8.817.635 9.644 9.2 15.961 13.66 7.731 5.458 18.52 1.447 27.235 3.941 6.315 1.807 11.924 5.485 18.341 6.879 9.3 2.02 19.025 1.372 28.329-.291 11.149-1.993 7.691-8.221 17.109-26.823 6.565-6.921-3.5-32.676-3.5-33.26-6.851-6.475-11.611-42.075-20.631-39.337" class="cls-2" data-name="Trazado 733" transform="translate(-298.425 -126.369)"/>
                </g>
            </g>
        </g>
        <path id="Trazado_736" d="M350.5 327.9c0 .893-7.854 1.616-17.542 1.616s-17.542-.723-17.542-1.616 7.854-1.616 17.542-1.616S350.5 327 350.5 327.9z" class="cls-3" data-name="Trazado 736" transform="translate(-11.121 -130.889)"/>
        <path id="Trazado_737" d="M468.871 335.763c0 .893-14.4 1.616-32.166 1.616s-32.167-.723-32.167-1.616 14.4-1.615 32.167-1.615 32.166.723 32.166 1.615z" class="cls-3" data-name="Trazado 737" transform="translate(-69.476 -136.039)"/>
        <path id="Trazado_738" d="M589.484 354.439c0 .892-9.151 1.616-20.439 1.616s-20.439-.723-20.439-1.616 9.151-1.615 20.439-1.615 20.439.723 20.439 1.615z" class="cls-3" data-name="Trazado 738" transform="translate(-163.802 -148.267)"/>
        <path id="Trazado_739" d="M533.1 351.25c0 .472-1.831.855-4.089.855s-4.089-.383-4.089-.855 1.831-.855 4.089-.855 4.089.383 4.089.855z" class="cls-3" data-name="Trazado 739" transform="translate(-148.295 -146.677)"/>
        <path id="Trazado_740" d="M535.87 200.584a7.749 7.749 0 0 0-.3-3.286l-1.992.479a5.665 5.665 0 0 0-.811-1.544l1.526-1.367a7.792 7.792 0 0 0-2.535-2.112l-1.07 1.747a5.671 5.671 0 0 0-1.665-.519l.112-2.046a7.749 7.749 0 0 0-3.286.3l.479 1.992a5.676 5.676 0 0 0-1.544.811l-1.367-1.525a7.786 7.786 0 0 0-2.112 2.535l1.747 1.07a5.67 5.67 0 0 0-.52 1.665l-2.046-.112a7.747 7.747 0 0 0 .3 3.286l1.992-.479a5.668 5.668 0 0 0 .811 1.544l-1.525 1.367a7.793 7.793 0 0 0 2.536 2.11l1.07-1.747a5.67 5.67 0 0 0 1.665.52l-.112 2.046a7.748 7.748 0 0 0 3.286-.3l-.479-1.992a5.679 5.679 0 0 0 1.544-.811l1.367 1.525a7.783 7.783 0 0 0 2.112-2.534l-1.747-1.07a5.667 5.667 0 0 0 .52-1.665zm-7.405 2.194a3.164 3.164 0 1 1 2.865-3.438 3.164 3.164 0 0 1-2.866 3.438z" class="cls-4" data-name="Trazado 740" transform="translate(-145.352 -42.889)"/>
        <path id="Trazado_741" d="M510.907 169.543a4.6 4.6 0 0 0-.177-1.951l-1.183.285a3.368 3.368 0 0 0-.482-.917l.906-.811a4.624 4.624 0 0 0-1.5-1.254l-.635 1.037a3.356 3.356 0 0 0-.988-.308l.066-1.215a4.609 4.609 0 0 0-1.95.177l.284 1.183a3.371 3.371 0 0 0-.917.481l-.811-.906a4.623 4.623 0 0 0-1.254 1.5l1.037.635a3.353 3.353 0 0 0-.308.988l-1.215-.067a4.6 4.6 0 0 0 .177 1.951l1.183-.285a3.368 3.368 0 0 0 .481.917l-.905.811a4.624 4.624 0 0 0 1.5 1.254l.635-1.037a3.362 3.362 0 0 0 .989.308l-.067 1.215a4.6 4.6 0 0 0 1.951-.177l-.285-1.183a3.367 3.367 0 0 0 .917-.481l.811.905a4.623 4.623 0 0 0 1.254-1.5l-1.037-.635a3.381 3.381 0 0 0 .308-.988zm-4.4 1.3a1.879 1.879 0 1 1 1.7-2.041 1.878 1.878 0 0 1-1.696 2.044z" class="cls-4" data-name="Trazado 741" transform="translate(-133.117 -24.883)"/>
        <g id="Grupo_40" data-name="Grupo 40" transform="translate(382.591 162.206)">
            <path id="Trazado_742" d="M551.572 252.107a9.981 9.981 0 0 0 2.281-4.01 19.3 19.3 0 0 0 .657-4.391 11.648 11.648 0 0 1 .691-4.235c1.49-4.26 3.271-3.56 3.9-3.148s.843 1.16.739 2.32c-.083.933-1.263 5.2.232 4.732 1.731-.544 2.235-5.091 2.679-6.571a11.019 11.019 0 0 1 3.815-5.876 3 3 0 0 1 3.246-.446 2.688 2.688 0 0 1 1.045 1.743c.427 2.05-.508 4.01-1.506 5.741-.417.724-3.481 3.931-1.27 3.856.528-.018 5.267-2.866 5.255.693 0 1.254-1.543 2.349-3.932 3.661-1.492.82-6.879 2.774-6.794 4.172s3.164-.436 2.516 2.066c-.363 1.4-2.362 2.2-3.7 2.576-.636.181-1.305.234-1.928.456-.738.263-1.694 1-1.266 1.893.187.389.613.624.787 1.019a1.227 1.227 0 0 1-.231 1.227 2.846 2.846 0 0 1-1.07.742 11.418 11.418 0 0 1-8.229.147 26.354 26.354 0 0 1-7.3-4.132" class="cls-5" data-name="Trazado 742" transform="translate(-542.194 -230.164)"/>
            <g id="Grupo_39" class="cls-6" data-name="Grupo 39" transform="translate(9.728 2.526)">
                <path id="Trazado_743" d="M589.153 237.48s-4.722 14.53-14.91 22.689" class="cls-7" data-name="Trazado 743" transform="translate(-572.905 -237.48)"/>
                <path id="Trazado_744" d="M607.329 267.387s-5.536 3.311-9.757 3.363" class="cls-7" data-name="Trazado 744" transform="translate(-588.18 -257.061)"/>
                <path id="Trazado_745" d="M586.789 253.1c-.556 2.308-1.574 8.816.249 12.244" class="cls-7" data-name="Trazado 745" transform="translate(-580.603 -247.709)"/>
                <path id="Trazado_746" d="M587.094 295.345s-2.2 1.467-8.415 1.4" class="cls-7" data-name="Trazado 746" transform="translate(-575.81 -275.366)"/>
                <path id="Trazado_747" d="M576.216 309.083a9.79 9.79 0 0 1-5.847-1.842" class="cls-8" data-name="Trazado 747" transform="translate(-570.369 -283.155)"/>
            </g>
        </g>
        <g id="Grupo_41" data-name="Grupo 41" transform="translate(403.538 178.397)">
            <path id="Trazado_748" d="M626.176 292.012c-1.125-3.873-.289-8.049 1.039-11.856a6.528 6.528 0 0 1 1.369-2.537 1.536 1.536 0 0 1 1.319-.541c.713.145 1.013.994 1.093 1.717.507 4.565-2.5 8.749-3.262 13.279" class="cls-9" data-name="Trazado 748" transform="translate(-617.783 -277.058)"/>
            <path id="Trazado_749" d="M608.055 303.2a11.87 11.87 0 0 0-1.072-3.33 5.889 5.889 0 0 0-2.382-2.507 1.327 1.327 0 0 0-1.462-.043c-.427.379-.289 1.077-.037 1.589 1.382 2.8 4.912 4.061 6.255 6.883" class="cls-9" data-name="Trazado 749" transform="translate(-602.864 -290.191)"/>
            <path id="Trazado_750" d="M617.679 299.391a24.446 24.446 0 0 1-2.205-5.1 9.414 9.414 0 0 1 .018-5.483c.186-.541.65-1.16 1.191-.974a1.084 1.084 0 0 1 .474.4 9.317 9.317 0 0 1 1.577 4.676 45.317 45.317 0 0 0 .551 4.963 1.4 1.4 0 0 0 .293.674.521.521 0 0 0 .67.1.706.706 0 0 0 .206-.356c.231-.724 3.823-8.182 7.077-8.706a2.48 2.48 0 0 1 .8-.028c4.08.678-5.112 9.205-5.181 10.475 3.326-2.851 4.031-3.376 5.545-3.649 1.167-.21 3.2.824 2.531 2.251a3.564 3.564 0 0 1-2.686 1.641c-1.167.233-2.367.308-3.513.633a4.623 4.623 0 0 0-2.854 1.99" class="cls-9" data-name="Trazado 750" transform="translate(-610.858 -284.095)"/>
        </g>
        <g id="Grupo_43" data-name="Grupo 43" transform="translate(326.017 165.603)">
            <path id="Trazado_751" d="M392.716 250.68c-3.285-1.728-1.349-4.921-1.835-7-.8-3.428-1.709-4.116-3.587-3.446-.918.328-1.43 1.662-1.633 2.524a11.461 11.461 0 0 0 .108 4.166c.161 1.185.868 3.749-.548 4.2s-1.632-1.423-3.348-2.785c-.771-.612-2.852-.868-3.312.65-.819 2.7.453 3.98 6.834 7.553 1.088.609 3.439 1.249 3.3 1.86s-1.8-.122-3.023.3c-1.983.677-1.088 1.924-.391 2.327 5.548 3.2 10.056 1.795 12.223 2.8a9.042 9.042 0 0 1 2.307 2.072c1.633 1.619 2.249 1.333 4.548 1.274a5.8 5.8 0 0 0 3.725-1.309 1.432 1.432 0 0 0 .587-1.433 1.56 1.56 0 0 0-.717-.731c-2.069-1.28-4.511-1.836-6.628-3.034a12.541 12.541 0 0 1-6.11-8.752" class="cls-5" data-name="Trazado 751" transform="translate(-378.339 -240.001)"/>
            <g id="Grupo_42" class="cls-6" data-name="Grupo 42" transform="translate(1.891 2.535)">
                <path id="Trazado_752" d="M406.349 247.342c0 .9.072 1.79.147 2.667.257 2.981.519 5.995 1.03 8.728a49.852 49.852 0 0 0 2.809 9.263 9.414 9.414 0 0 0 1.255 2.51" class="cls-7" data-name="Trazado 752" transform="translate(-398.569 -247.342)"/>
                <path id="Trazado_753" d="M383.816 270.942c3.25 3.205 7.8 4.71 12.272 5.629" class="cls-8" data-name="Trazado 753" transform="translate(-383.816 -262.794)"/>
                <path id="Trazado_754" d="M404.538 298.967c2.5.507 7.491 1.641 9.676 1.208" class="cls-8" data-name="Trazado 754" transform="translate(-397.383 -281.143)"/>
            </g>
        </g>
        <path id="Trazado_755" d="M583.63 161.474l1.627-1.212a10.09 10.09 0 0 0-3.1-3.1l-1.211 1.627a7.958 7.958 0 0 0-2.265-.939l.294-2.009a9.842 9.842 0 0 0-4.391 0l.294 2.009a7.961 7.961 0 0 0-2.264.939l-1.211-1.627a10.086 10.086 0 0 0-3.1 3.1l1.627 1.212a7.969 7.969 0 0 0-.939 2.264l-2.009-.294a9.847 9.847 0 0 0 0 4.391l2.009-.294a7.969 7.969 0 0 0 .939 2.264l-1.627 1.211a10.083 10.083 0 0 0 3.1 3.1l1.211-1.627a7.971 7.971 0 0 0 2.264.939l-.294 2.009a9.848 9.848 0 0 0 4.391 0l-.294-2.009a7.968 7.968 0 0 0 2.265-.939l1.211 1.627a10.088 10.088 0 0 0 3.1-3.1l-1.627-1.211a7.967 7.967 0 0 0 .939-2.264l2.009.294a9.847 9.847 0 0 0 0-4.391l-2.009.294a7.967 7.967 0 0 0-.939-2.264zm-6.856 9.5a5.335 5.335 0 1 1 5.335-5.335 5.335 5.335 0 0 1-5.335 5.336z" class="cls-5" data-name="Trazado 755" transform="translate(-175.663 -19.131)"/>
        <path id="Trazado_756" d="M414.186 200.318l.682-.981a5.95 5.95 0 0 0-2.315-1.154l-.373 1.135a4.7 4.7 0 0 0-1.441-.1l-.212-1.178a5.8 5.8 0 0 0-2.453.821l.54 1.068a4.7 4.7 0 0 0-1.09.948l-.981-.682a5.94 5.94 0 0 0-1.154 2.315l1.135.373a4.7 4.7 0 0 0-.1 1.441l-1.177.212a5.8 5.8 0 0 0 .821 2.453l1.068-.54a4.7 4.7 0 0 0 .948 1.089l-.682.981a5.949 5.949 0 0 0 2.315 1.154l.373-1.135a4.693 4.693 0 0 0 1.441.1l.211 1.178a5.794 5.794 0 0 0 2.453-.821l-.54-1.068a4.7 4.7 0 0 0 1.089-.948l.981.682a5.946 5.946 0 0 0 1.154-2.315l-1.136-.373a4.694 4.694 0 0 0 .1-1.441l1.178-.211a5.811 5.811 0 0 0-.821-2.454l-1.068.54a4.7 4.7 0 0 0-.946-1.089zm-2.095 6.467a3.013 3.013 0 1 1 1.9-3.814 3.013 3.013 0 0 1-1.9 3.814z" class="cls-5" data-name="Trazado 756" transform="translate(-69.94 -46.925)"/>
        <g id="Grupo_49" data-name="Grupo 49" transform="translate(339.679 155.409)">
            <path id="Rectángulo_1575" d="M9.04 0h36.029a9.04 9.04 0 0 1 9.04 9.04v35.279H0V9.04A9.04 9.04 0 0 1 9.04 0z" class="cls-10" data-name="Rectángulo 1575"/>
            <rect id="Rectángulo_1576" width="18.039" height="8.96" class="cls-11" data-name="Rectángulo 1576" rx="2.075" transform="translate(3.928 32.012)"/>
            <rect id="Rectángulo_1577" width="32.255" height="1.604" class="cls-11" data-name="Rectángulo 1577" rx=".802" transform="translate(3.928 6.797)"/>
            <rect id="Rectángulo_1578" width="32.255" height="1.604" class="cls-11" data-name="Rectángulo 1578" rx=".802" transform="translate(3.928 10.112)"/>
            <rect id="Rectángulo_1579" width="32.255" height="1.604" class="cls-11" data-name="Rectángulo 1579" rx=".802" transform="translate(3.928 13.427)"/>
            <rect id="Rectángulo_1580" width="32.255" height="1.604" class="cls-11" data-name="Rectángulo 1580" rx=".802" transform="translate(3.928 16.743)"/>
            <rect id="Rectángulo_1581" width="32.255" height="1.604" class="cls-11" data-name="Rectángulo 1581" rx=".802" transform="translate(3.928 20.058)"/>
            <rect id="Rectángulo_1582" width="32.255" height="1.604" class="cls-11" data-name="Rectángulo 1582" rx=".802" transform="translate(3.928 23.373)"/>
            <g id="Grupo_44" data-name="Grupo 44" transform="translate(35.346 38.995)">
                <path id="Trazado_757" d="M521.322 323.419l.321.651.718.1-.52.507.123.715-.642-.338-.642.338.123-.715-.52-.507.718-.1z" class="cls-2" data-name="Trazado 757" transform="translate(-520.282 -323.419)"/>
                <path id="Trazado_758" d="M530.548 323.419l.321.651.718.1-.52.507.123.715-.642-.338-.642.338.123-.715-.52-.507.718-.1z" class="cls-2" data-name="Trazado 758" transform="translate(-526.323 -323.419)"/>
                <path id="Trazado_759" d="M539.774 323.419l.321.651.718.1-.52.507.123.715-.642-.338-.642.338.123-.715-.52-.507.718-.1z" class="cls-2" data-name="Trazado 759" transform="translate(-532.364 -323.419)"/>
                <path id="Trazado_760" d="M549 323.419l.321.651.718.1-.52.507.123.715-.642-.338-.642.338.123-.715-.52-.507.718-.1z" class="cls-2" data-name="Trazado 760" transform="translate(-538.405 -323.419)"/>
                <path id="Trazado_761" d="M558.227 323.419l.321.651.718.1-.52.507.123.715-.642-.338-.642.338.123-.715-.52-.507.718-.1z" class="cls-2" data-name="Trazado 761" transform="translate(-544.445 -323.419)"/>
            </g>
            <g id="Grupo_47" data-name="Grupo 47" transform="translate(14.507 9.997)">
                <path id="Trazado_762" d="M478.792 243.048a14.419 14.419 0 0 1-5.886-3.616 14.419 14.419 0 0 1-5.886 3.616 22.927 22.927 0 0 1-7.094 1s0 12.447 4.268 17.462a16.383 16.383 0 0 0 8.712 5.539 16.384 16.384 0 0 0 8.712-5.539c4.268-5.015 4.268-17.462 4.268-17.462a22.927 22.927 0 0 1-7.094-1z" class="cls-12" data-name="Trazado 762" transform="translate(-459.926 -239.432)"/>
                <path id="Trazado_763" d="M475.418 270a15.142 15.142 0 0 1-7.243-4.807c-2.639-3.1-3.538-10.235-3.752-14.331a23.365 23.365 0 0 0 5.717-1.05 17.352 17.352 0 0 0 5.279-2.847 17.34 17.34 0 0 0 5.278 2.847 23.372 23.372 0 0 0 5.717 1.05c-.214 4.1-1.112 11.229-3.753 14.331a15.142 15.142 0 0 1-7.243 4.807z" class="cls-13" data-name="Trazado 763" transform="translate(-462.87 -244.362)"/>
                <path id="Trazado_764" d="M476.654 270.854a14.4 14.4 0 0 1-6.772-4.569c-1.488-1.748-2.4-4.858-2.958-8.039a50 50 0 0 1-.615-5.32 23.385 23.385 0 0 0 5.262-1.034 17.957 17.957 0 0 0 5.084-2.644 17.952 17.952 0 0 0 5.083 2.644 23.405 23.405 0 0 0 5.26 1.034c-.26 4.076-1.16 10.525-3.572 13.359a14.406 14.406 0 0 1-6.772 4.569z" class="cls-12" data-name="Trazado 764" transform="translate(-464.105 -245.859)"/>
                <g id="Grupo_46" data-name="Grupo 46" transform="translate(10.368 9.398)">
                    <g id="Grupo_45" data-name="Grupo 45">
                        <path id="Trazado_765" d="M494.315 268.832a2.18 2.18 0 1 1-2.18-2.18 2.18 2.18 0 0 1 2.18 2.18z" class="cls-10" data-name="Trazado 765" transform="translate(-489.955 -266.652)"/>
                        <path id="Trazado_766" d="M494.527 279.588a.918.918 0 0 1-.918-.918v-5.025a.918.918 0 0 1 .918-.918.918.918 0 0 1 .918.918v5.025a.918.918 0 0 1-.918.918z" class="cls-10" data-name="Trazado 766" transform="translate(-492.347 -270.63)"/>
                    </g>
                </g>
                <path id="Trazado_767" d="M502.155 243.048a14.419 14.419 0 0 1-5.886-3.616v27.617a16.384 16.384 0 0 0 8.712-5.539c4.268-5.015 4.268-17.462 4.268-17.462a22.927 22.927 0 0 1-7.094-1z" class="cls-14" data-name="Trazado 767" transform="translate(-483.721 -239.432)"/>
            </g>
            <path id="Trazado_768" d="M468.9 210.478h-47.869a3.121 3.121 0 0 0-3.121 3.121v1.486h54.11V213.6a3.121 3.121 0 0 0-3.12-3.122z" class="cls-9" data-name="Trazado 768" transform="translate(-417.91 -210.478)"/>
            <g id="Grupo_48" data-name="Grupo 48" transform="translate(45.08 1.804)">
                <path id="Trazado_769" d="M549.476 216.2a.5.5 0 1 1-.5-.5.5.5 0 0 1 .5.5z" class="cls-10" data-name="Trazado 769" transform="translate(-548.476 -215.702)"/>
                <path id="Trazado_770" d="M556.671 216.2a.5.5 0 1 1-.5-.5.5.5 0 0 1 .5.5z" class="cls-10" data-name="Trazado 770" transform="translate(-553.187 -215.702)"/>
                <path id="Trazado_771" d="M563.867 216.2a.5.5 0 1 1-.5-.5.5.5 0 0 1 .5.5z" class="cls-10" data-name="Trazado 771" transform="translate(-557.898 -215.702)"/>
            </g>
        </g>
        <path id="Trazado_772" d="M324.916 297.79H312.2c-2.481 0-2.078-2.942 4.824-1.633-1.694-.774-1.7-1.811-1.56-2.087a1.077 1.077 0 0 1 .9-.393 5.915 5.915 0 0 1 2.314 1.043 4.939 4.939 0 0 1-2.2-4.226 1.753 1.753 0 0 1 .449-1.255 1.857 1.857 0 0 1 1.5-.48c.932.185 2.644 1.74 3.326 2.4-3.478-3.2-4.8-8.241-2.576-9.391 3.749-1.936 6.58 9.032 6.58 9.032s-1.864-8.241 1.263-8.29.585 9.574.585 9.574" class="cls-9" data-name="Trazado 772" transform="translate(-8.108 -101.595)"/>
        <path id="Trazado_773" d="M586.925 310.089a5.55 5.55 0 0 0-1.778.3 8.626 8.626 0 0 0-17.248.254c0 .218.011.434.027.647a4.773 4.773 0 0 0-8.76 3.517 3.426 3.426 0 1 0-1.664 6.421h29.423a5.567 5.567 0 1 0 0-11.134z" class="cls-10" data-name="Trazado 773" transform="translate(-167.383 -114.998)"/>
        <path id="Trazado_774" d="M341.473 301.33a3.647 3.647 0 0 1 1.169.194 5.671 5.671 0 0 1 11.34.167c0 .143-.007.285-.018.426a3.138 3.138 0 0 1 5.76 2.312 2.253 2.253 0 1 1 1.094 4.222h-19.345a3.66 3.66 0 1 1 0-7.32z" class="cls-10" data-name="Trazado 774" transform="translate(-25.789 -111.075)"/>
        <path id="Trazado_775" d="M551.623 245.134l1.276-.457a6.742 6.742 0 0 0-1.38-2.59l-1.091.8a5.324 5.324 0 0 0-1.265-1.041l.58-1.227a6.59 6.59 0 0 0-2.807-.856l-.2 1.342a5.335 5.335 0 0 0-1.63.159l-.458-1.276a6.741 6.741 0 0 0-2.59 1.38l.8 1.091a5.328 5.328 0 0 0-1.041 1.264l-1.227-.579a6.573 6.573 0 0 0-.856 2.807l1.342.2a5.337 5.337 0 0 0 .159 1.63l-1.276.457a6.738 6.738 0 0 0 1.38 2.59l1.091-.8a5.322 5.322 0 0 0 1.265 1.041l-.579 1.227a6.574 6.574 0 0 0 2.807.856l.2-1.341a5.326 5.326 0 0 0 1.631-.159l.457 1.276a6.744 6.744 0 0 0 2.59-1.38l-.8-1.091a5.318 5.318 0 0 0 1.041-1.265l1.227.58a6.584 6.584 0 0 0 .856-2.807l-1.342-.2a5.313 5.313 0 0 0-.16-1.631zm-6.061 4.17a2.972 2.972 0 1 1 3.71-1.976 2.972 2.972 0 0 1-3.71 1.972z" class="cls-5" data-name="Trazado 775" transform="translate(-157.993 -74.244)"/>
        <g id="Grupo_54" data-name="Grupo 54" transform="translate(382.055 168.399)">
            <g id="Grupo_50" data-name="Grupo 50" transform="translate(1.584 41.671)">
                <path id="Trazado_776" d="M558.78 369.673c0 .485-3.033.879-6.775.879s-6.775-.394-6.775-.879 3.033-.879 6.775-.879 6.775.394 6.775.879z" class="cls-5" data-name="Trazado 776" transform="translate(-545.23 -368.794)"/>
            </g>
            <g id="Grupo_51" data-name="Grupo 51" transform="translate(9.894 40.288)">
                <path id="Trazado_777" d="M574.7 364.788s.086.936.12 1.174.8.2.876.074a6.73 6.73 0 0 0 .051-1.23" class="cls-15" data-name="Trazado 777" transform="translate(-572.832 -364.788)"/>
                <path id="Trazado_778" d="M572.373 368.05a5.063 5.063 0 0 1-.025.659l-.877.059-.053-.144a1.383 1.383 0 0 1-.5.181l-.74.05c-.542.036-.854-.012-.874-.106-.084-.395.565-.42.733-.432a1.381 1.381 0 0 0 1.091-.548c.071-.184.031-.227.134-.2a.251.251 0 0 1 .159.12.445.445 0 0 0 .474.219.529.529 0 0 0 .287-.163.32.32 0 0 1 .191.305z" class="cls-16" data-name="Trazado 778" transform="translate(-569.297 -366.604)"/>
            </g>
            <g id="Grupo_52" data-name="Grupo 52" transform="translate(3.755 40.285)">
                <path id="Trazado_779" d="M557.383 365.086a7.166 7.166 0 0 0 .041.9c.047.235.806.16.879.025a6.726 6.726 0 0 0-.018-1.231" class="cls-15" data-name="Trazado 779" transform="translate(-555.358 -364.78)"/>
                <path id="Trazado_780" d="M554.683 368.119c.021.249.019.719.019.719l-.778.188-.1-.132a1.364 1.364 0 0 1-.457.249 3.068 3.068 0 0 1-.734.071 1.734 1.734 0 0 1-1.109-.338c-.092-.393.762-.344.936-.358a1.127 1.127 0 0 0 .933-.655c.071-.185.029-.227.135-.2a.257.257 0 0 1 .166.117.464.464 0 0 0 .493.21.555.555 0 0 0 .294-.168.32.32 0 0 1 .202.297z" class="cls-16" data-name="Trazado 780" transform="translate(-551.518 -366.661)"/>
            </g>
            <path id="Trazado_781" d="M570.923 276.047a2.665 2.665 0 0 0 1.186 1.5 5 5 0 0 0 3.334.028c.861-.343.578-5.9-.43-7.689-.236-.418-1.152-.624-1.714-.742a16.066 16.066 0 0 0 1.274 6.74c-.049.285-3.65.163-3.65.163z" class="cls-16" data-name="Trazado 781" transform="translate(-560.468 -261.879)"/>
            <path id="Trazado_782" d="M576.959 280.73c.251-.345-.126-4.213-.1-4.809l-1.186 2.159c.212.885-.672 2.439-1.732 2.428l-.153.214c.622.145 2.919.353 3.171.008z" class="cls-16" data-name="Trazado 782" transform="translate(-562.342 -266.316)"/>
            <path id="Trazado_783" d="M569.169 311.875a29.353 29.353 0 0 0 .377 3.737c.162.829 2.038.33 1.991-.4-.067-1.044.4-2.949.81-7.909.06-.75.4-.837.621-2.381a5.968 5.968 0 0 0-.635-3.157l-3.2-.206-.047 4.5-.014 1.523s-.013 2.09.097 4.293z" class="cls-17" data-name="Trazado 783" transform="translate(-559.253 -283.099)"/>
            <path id="Trazado_784" d="M572.13 338.786a6.76 6.76 0 0 1 .695 2.225c.13 1.588-.031 6.812-.031 6.812a3.407 3.407 0 0 1-1.257.049s-1.483-8.719-1.553-9.716 2.146.63 2.146.63z" class="cls-17" data-name="Trazado 784" transform="translate(-559.852 -306.851)"/>
            <path id="Trazado_785" d="M569.169 314.518a27.978 27.978 0 0 1 1.051-2.924c.519-1.106.822-1.769.822-1.769 1.835-1.925.2-4.234.2-4.234s-.916 1.238-1.02 1.366-.7 1.171-1.137 1.745l-.014 1.523s-.012 2.09.098 4.293z" class="cls-17" data-name="Trazado 785" transform="translate(-559.253 -285.742)"/>
            <path id="Trazado_786" d="M557.466 332.775a5.594 5.594 0 0 1 .77-2.595s-2.445-1.874-2.484-2.309c0 0-.348 2.745-.473 3.591-.217 1.471.516 9.859.516 9.859a3.021 3.021 0 0 0 1.239.017 34.8 34.8 0 0 1 .662-5.435 8.164 8.164 0 0 0-.23-3.128z" class="cls-17" data-name="Trazado 786" transform="translate(-550.2 -300.329)"/>
            <path id="Trazado_787" d="M558.015 301.326c-.955 2.131-1.992 9.006-2.24 11.379-.106 1.006.733 2.531 1.708 1.621 1.165-1.086 2.8-6.408 3.39-7.286s2.777-1.684 1.28-6.141" class="cls-17" data-name="Trazado 787" transform="translate(-550.544 -282.67)"/>
            <path id="Trazado_788" d="M567.906 256.61a4.113 4.113 0 0 1-.146-1.532 8.618 8.618 0 0 0 .358-2.7 2.2 2.2 0 0 0-2.424-1.5c-1.171.114-1.513 1.236-1.708 1.887a6.718 6.718 0 0 0-.114 2.18 1.508 1.508 0 0 0 .537 1.073c.2.114.93-.036 1.059.1a3.5 3.5 0 0 1 .227.97" class="cls-15" data-name="Trazado 788" transform="translate(-555.827 -249.913)"/>
            <path id="Trazado_789" d="M570.77 267.792a1.565 1.565 0 0 0-.188-.712 4.168 4.168 0 0 0-1.723-.259 5.271 5.271 0 0 0-1.4.492c-.124.086.071.6.071.6z" class="cls-16" data-name="Trazado 789" transform="translate(-558.171 -260.355)"/>
            <path id="Trazado_790" d="M568.286 253.688s-1.6.044-1.936 0a1.192 1.192 0 0 1-1.063-.974c.392-.01.422-.825.211-1.134s-.481-.121-.514.172 0 .2-.079.24c-.1.053-.249.045-.209-.52a2.126 2.126 0 0 1 .214-.939c.146-.325.226-.307.358-.366a1.011 1.011 0 0 1-.577-.517 1.078 1.078 0 0 1 .326-1.549.694.694 0 0 0 .548.5c.706.194 1.988.032 2.61.4.265.155.5.5.372.769 0 0 .514-.081.545.935a3.454 3.454 0 0 1-.683 2.562c-.05.315.039.348-.123.421z" class="cls-18" data-name="Trazado 790" transform="translate(-556.256 -248.101)"/>
            <g id="Grupo_53" data-name="Grupo 53" transform="translate(7.156 7.172)">
                <path id="Trazado_791" d="M561.776 280.358c.152.056.287.146.444.193a3.05 3.05 0 0 0 1.154.015c.4-.035.792-.072 1.189-.1 2.068-.088 2.778.409 3.113-.094a.579.579 0 0 0 .071-.424 3.028 3.028 0 0 1-.161-1.07c.051-.384.123-.842.222-1.366a60.99 60.99 0 0 0 1.11-6.245 2.191 2.191 0 0 0-2.289-2.361c-3.556-.222-4.881.8-5.075 2.33a5.599 5.599 0 0 0-.031.347 52.612 52.612 0 0 0 .584 6.735c.062.521-.636 1.929-.331 2.04z" class="cls-16" data-name="Trazado 791" transform="translate(-561.461 -268.874)"/>
                <path id="Trazado_792" d="M561.55 285.209a2.045 2.045 0 0 0 1.2.113c-.549.04-1.118-.3-1-.585a4.745 4.745 0 0 0 .5-1.413c.144-1.915.107-7.344.182-7.255-.085.171-.33.41-1.019.569-.014 1.585.278 4.39.388 6.166.112 1.762-.815 1.915-.251 2.405z" class="cls-16" data-name="Trazado 792" transform="translate(-561.367 -273.585)"/>
            </g>
            <path id="Trazado_793" d="M540.646 262.328c.009-.092.129-.048.16.028a.593.593 0 0 1 .017.066 3.472 3.472 0 0 1-.017-.306c.009-.088.119-.056.157.013v-.127c.009-.113.129-.067.161.026a1.348 1.348 0 0 1 .028.155.743.743 0 0 1 0-.085c.009-.092.116-.069.147.007a1.132 1.132 0 0 1 .033.179c.015.093.042.192.055.285s.116.482.315.522c.3.061.1-.464.317-.585.067-.038.144.37.152.6a2.588 2.588 0 0 1-.009.484 3.2 3.2 0 0 0-.078.413 2 2 0 0 0 .105.3l-.7.29a1.776 1.776 0 0 0-.188-.515 1.933 1.933 0 0 1-.559-.818 3.392 3.392 0 0 1-.1-.619s.001-.283.004-.313z" class="cls-15" data-name="Trazado 793" transform="translate(-540.642 -257.158)"/>
            <path id="Trazado_794" d="M542.729 268.7s.236 1.369.47 2.464a10.654 10.654 0 0 0 .817 2.524c0 .006 0 .014.005.02a3.806 3.806 0 0 0 1.073 1.367c1.333.615 4.365-2.959 5.066-2.734 1.437.384 2.506-3.724 2.506-3.724a18.184 18.184 0 0 0-2.713.241c-1.089.231-3.992 3.863-4.139 3.871s-.389-.536-.713-1.153c-.726-1.385-1.531-3.131-1.531-3.131s-.66.2-.672.2z" class="cls-16" data-name="Trazado 794" transform="translate(-542.008 -261.418)"/>
            <path id="Trazado_795" d="M563.136 257.71s-.507.759-.446.921.548.152.548.152" class="cls-15" data-name="Trazado 795" transform="translate(-555.075 -254.392)"/>
        </g>
        <g id="Grupo_60" data-name="Grupo 60" transform="translate(318.195 169.7)">
            <path id="Trazado_796" d="M380.729 280.6c.649.777 1.179 2.61 1.842 3.374a24.876 24.876 0 0 0 4.244 3.275c.073-.472 1.071-.178.716-.5-1.1-.994-3.011-2.006-3.66-3.828a34.565 34.565 0 0 0-2.009-3.863" class="cls-19" data-name="Trazado 796" transform="translate(-372.082 -269.673)"/>
            <g id="Grupo_56" data-name="Grupo 56" transform="translate(10.367 8.069)">
                <path id="Trazado_797" d="M397.407 283.4h-11.7v-7.144a1.013 1.013 0 0 1 1.013-1.013h4.409a.473.473 0 0 1 .3.111l1.071.9a.5.5 0 0 0 .323.118h3.562a1.013 1.013 0 0 1 1.013 1.013z" class="cls-9" data-name="Trazado 797" transform="translate(-385.711 -275.238)"/>
                <rect id="Rectángulo_1583" width="10.338" height="5.637" class="cls-9" data-name="Rectángulo 1583" rx="1.738" transform="translate(.754 1.52)"/>
                <rect id="Rectángulo_1584" width="11.696" height="7.402" class="cls-9" data-name="Rectángulo 1584" rx="3.273" transform="translate(0 2.662)"/>
                <g id="Grupo_55" data-name="Grupo 55" transform="translate(3.875 3.35)">
                    <path id="Trazado_798" d="M400.6 286.888h-.229v-.488a1.46 1.46 0 1 0-2.92 0v.486h-.229a.284.284 0 0 0-.284.284v2.279a.846.846 0 0 0 .846.846h2.255a.846.846 0 0 0 .846-.846v-2.279a.284.284 0 0 0-.285-.282zm-2.613-.486a.924.924 0 0 1 1.849 0v.486h-1.849z" class="cls-9" data-name="Trazado 798" transform="translate(-396.934 -284.942)"/>
                    <path id="Trazado_799" d="M402.189 292.979a.512.512 0 1 0-.728.461v.916a.216.216 0 1 0 .431 0v-.916a.51.51 0 0 0 .297-.461z" class="cls-9" data-name="Trazado 799" transform="translate(-399.704 -289.869)"/>
                </g>
            </g>
            <g id="Grupo_57" data-name="Grupo 57" transform="translate(0 39.145)">
                <path id="Trazado_800" d="M355.684 366.217c0 .537 3.355.973 7.495.973s7.494-.435 7.494-.973-3.355-.973-7.494-.973-7.495.436-7.495.973z" class="cls-20" data-name="Trazado 800" transform="translate(-355.684 -365.244)"/>
            </g>
            <g id="Grupo_58" data-name="Grupo 58" transform="translate(3.407 15.147)">
                <path id="Trazado_801" d="M369.451 298.175l-2.97-2.437a4.8 4.8 0 0 0-.8 3.653 16.445 16.445 0 0 0 .733 1.723c.134.388 1.094 5.893 1.034 6.3a28.079 28.079 0 0 0-.684 2.729c-.2 1.43-.1 6.08-.249 7.316s.99 1.428 1.047 1.01c.486-3.573 1.823-9.149 2-10.934s.038-5.053-.111-9.36z" class="cls-21" data-name="Trazado 801" transform="translate(-365.551 -295.738)"/>
                <path id="Trazado_802" d="M374.665 312.964l-1.236 2.948a6.567 6.567 0 0 1 .933 3.059c.029.565-.013 1.132.011 1.7a.559.559 0 0 0 .019.123c.16-.841.278-1.533.321-1.984a53.794 53.794 0 0 0 .016-5.847.549.549 0 0 0-.064.001z" class="cls-19" data-name="Trazado 802" transform="translate(-370.709 -307.014)"/>
                <path id="Trazado_803" d="M368.5 357.757a7.573 7.573 0 0 0-.18 1.462 2.272 2.272 0 0 0 .62.809c.287.178.919.385.971.463a.2.2 0 0 1-.033.265 1.3 1.3 0 0 1-.894.24c-.856-.129-.949-.505-1.447-.559-.086-.009-.243.12-.482 0a.565.565 0 0 1-.34-.543 2.447 2.447 0 0 1 .365-.919 7.449 7.449 0 0 0 .223-1.473" class="cls-21" data-name="Trazado 803" transform="translate(-366.314 -336.178)"/>
                <path id="Trazado_804" d="M369.713 364.01c.061-.107.074-.269.016-.307a4.979 4.979 0 0 0-.536-.312c-.166-.074-.43-.137-.337-.089s-.074.238-.229.23a4.714 4.714 0 0 1-1.241-.447 1.047 1.047 0 0 1-.653-.7 2.049 2.049 0 0 0-.307.607 1.05 1.05 0 0 0-.059.461 1.07 1.07 0 0 1 .055.438.834.834 0 0 0 .318.11 1.252 1.252 0 0 0 .34 0l.034-.277a1.256 1.256 0 0 1 .272.023 1.488 1.488 0 0 1 .418.188c.062.072.113.2.194.244a1.708 1.708 0 0 0 .7.165c.579.021.911-.151 1.015-.334z" class="cls-9" data-name="Trazado 804" transform="translate(-366.078 -339.371)"/>
            </g>
            <g id="Grupo_59" data-name="Grupo 59" transform="translate(4.469 14.648)">
                <path id="Trazado_805" d="M375.549 319.2c-.063-.07-.743-.181-1.062-.314a1.833 1.833 0 0 1-.744-.708 7.664 7.664 0 0 1-.046-1.42c.064-2.539.533-8.744.6-10.23a32.712 32.712 0 0 0-1.211-9.4l-3.7-2.84a6.577 6.577 0 0 0-.689 3.769c.2 1.069 1.088 1.233 1.238 1.648s2.389 7.112 2.389 7.112a12.6 12.6 0 0 0-.461 3.034c-.022 1.354.592 5.438.706 6.994a5.132 5.132 0 0 1-.024 1.263c-.11.284-.39.618-.376.976a.551.551 0 0 0 .421.487c.262.081.408-.07.5-.074.522-.022.666.337 1.567.337a1.426 1.426 0 0 0 .894-.372.191.191 0 0 0-.002-.262z" class="cls-21" data-name="Trazado 805" transform="translate(-368.626 -294.293)"/>
                <path id="Trazado_806" d="M382.154 365.136c.049-.116.043-.277-.022-.307a5.228 5.228 0 0 0-.594-.229c-.182-.048-.462-.072-.36-.037s-.047.246-.208.263a5.009 5.009 0 0 1-1.339-.258.855.855 0 0 1-.674-.6 2.151 2.151 0 0 0-.332.647 1.014 1.014 0 0 0 0 .465 1.021 1.021 0 0 1 .112.426.893.893 0 0 0 .343.061 1.359 1.359 0 0 0 .352-.051v-.279a1.361 1.361 0 0 1 .284-.018.943.943 0 0 1 .459.162c.077.058.157.155.247.177a1.9 1.9 0 0 0 .731.055c.595-.06.917-.279 1.001-.477z" class="cls-9" data-name="Trazado 806" transform="translate(-375.154 -339.911)"/>
            </g>
            <path id="Trazado_807" d="M366.142 294.365a4.269 4.269 0 0 0-1.214 3.924c.09.41.607 1.514.707 1.923a21.944 21.944 0 0 1 .725 3.369 6.014 6.014 0 0 0 5.45-.3 23.481 23.481 0 0 0-.341-4.136 14.323 14.323 0 0 0-1.24-4.4c-.047-.19-.048-.575-.092-.8" class="cls-17" data-name="Trazado 807" transform="translate(-361.673 -279.419)"/>
            <path id="Trazado_808" d="M371.647 269.505c.232.077.145.63.378.707.168.056.5-.018.652.069.818.461.608 1.382.707 2.524a2.7 2.7 0 0 1 .162 2.159 7.641 7.641 0 0 1-1.126 1.281 3.941 3.941 0 0 0-.482 1.981c-.011.143.108.394.074.533-.066.267-.472.35-.925.358-1.041.02-2.62-.359-3.084-.342-.437.016-.85-.2-.807-.454.03-.18.21-.254.282-.6.157-.768.278-2.688.4-3.338a18.156 18.156 0 0 1 1.226-4.443" class="cls-12" data-name="Trazado 808" transform="translate(-363.219 -263.416)"/>
            <path id="Trazado_809" d="M383.464 278.733a7.8 7.8 0 0 0-.944-1.237l-.889.4a10.345 10.345 0 0 1 .686 2.624 2.081 2.081 0 0 0 .513-.05c.087-.141.054-.071.169-.275a3.6 3.6 0 0 0 .465-1.462z" class="cls-12" data-name="Trazado 809" transform="translate(-372.672 -268.648)"/>
            <path id="Trazado_810" d="M380.016 256.633a4.451 4.451 0 0 0 .152-1.151 1.92 1.92 0 0 0-1.208-2.012c-1.1-.394-2.311-.157-2.671.635a8.223 8.223 0 0 0-.329 2.633 3.958 3.958 0 0 1-.523 1.409l2.366 1.019a4.477 4.477 0 0 1 .546-.941c.159-.1.214.3.742.255.224-.019.463-.421.643-.915l.017-.049a2.474 2.474 0 0 0 .281-.024c.163-.049.15-.121.114-.224a2.689 2.689 0 0 1-.13-.635z" class="cls-21" data-name="Trazado 810" transform="translate(-368.617 -252.795)"/>
            <path id="Trazado_811" d="M398.183 301a1.268 1.268 0 0 0 .654.8.423.423 0 0 0 .278-.007c.128.058.537.1.385-.138a1.164 1.164 0 0 0 .883.191c.11-.006.107-.134-.134-.2a1.21 1.21 0 0 1-.751-.632c.05-.038.09.032.226.054s.231-.044.236-.11c0-.05-.177-.108-.217-.134l-.452-.3a.861.861 0 0 0-.475-.174c-.033 0-.358.017-.277.135" class="cls-21" data-name="Trazado 811" transform="translate(-383.509 -283.61)"/>
            <path id="Trazado_812" d="M382.736 278.112c.392.81 1.422 3.5 1.582 3.806.629 1.22 3.855 3.867 3.855 3.867a.655.655 0 0 0 .547-.637c-.924-.641-2.657-3.392-3.017-3.721a43.482 43.482 0 0 1-1.28-4.46" class="cls-21" data-name="Trazado 812" transform="translate(-373.396 -268.301)"/>
            <path id="Trazado_813" d="M380.311 269.655c-.9-.344-1.759-.346-2.448-1.034-.7.538.844 3.646 1.225 3.729s.9 1.8.993 2.034a2.084 2.084 0 0 0 1.7-.712c-.508-1.561-.599-3.684-1.47-4.017z" class="cls-12" data-name="Trazado 813" transform="translate(-370.088 -262.837)"/>
            <path id="Trazado_814" d="M372.8 258.771c-.062-.234-.239-.42-.278-.658a1.074 1.074 0 0 1 .133-.708 1.3 1.3 0 0 1 .308-.29 1.066 1.066 0 0 0 .5-1.3 1.589 1.589 0 0 1-.084-.586c.018-.178.055-.365.247-.388.134-.016.22.017.267.13.033.079-.032.645.156.324a1.31 1.31 0 0 0 .331-1.037c0-.084-.03-.425.022-.475a1.349 1.349 0 0 1 .462.951.69.69 0 0 0 .317-.6 1.574 1.574 0 0 0-.13-.708 2.078 2.078 0 0 0-1.27-1.254 2.86 2.86 0 0 0-1.166-.309c-.4.011-.906.131-1.023.435-.561-.145-.882.345-1.014.522a2.851 2.851 0 0 0-.433.835c-.143.443-.177.915-.29 1.367a1.987 1.987 0 0 1-.534 1.006c-.273.247-.657.27-.954.5a1.494 1.494 0 0 0-.567 1.241c.021.475.265.986-.022 1.422-.093.142-.224.255-.316.4a1.081 1.081 0 0 0 .021 1.115 1.98 1.98 0 0 0 .967.826 2.838 2.838 0 0 0 1.045.144 2.728 2.728 0 0 0 1.976-.615c.408-.349.147-.548.539-.918.22-.208.532-.318.693-.588a1.048 1.048 0 0 0 .1-.754c.005-.011.002-.02-.003-.03z" class="cls-17" data-name="Trazado 814" transform="translate(-363.301 -251.869)"/>
        </g>
        <path id="Trazado_815" d="M552.986 420.282h-.575" class="cls-22" data-name="Trazado 815" transform="translate(-166.293 -192.434)"/>
        <g id="Grupo_62" data-name="Grupo 62" transform="translate(399.11 143.295)">
            <g id="Grupo_61" data-name="Grupo 61">
                <path id="Trazado_816" d="M595.836 176.274c-2.867 0-4.745 2.905-4.745 2.905s1.878 2.905 4.745 2.905 4.745-2.905 4.745-2.905-1.881-2.905-4.745-2.905z" class="cls-10" data-name="Trazado 816" transform="translate(-590.728 -175.969)"/>
                <path id="Trazado_817" d="M595.147 181.811c-3 0-4.922-2.921-5-3.045l-.107-.166.107-.166c.08-.124 2-3.045 5-3.045s4.922 2.92 5 3.045l.107.166-.107.166c-.079.125-2.001 3.045-5 3.045zm-4.371-3.211c.442.6 2.094 2.6 4.371 2.6s3.93-2 4.371-2.6c-.442-.6-2.094-2.6-4.371-2.6s-3.93 2-4.372 2.6z" class="cls-12" data-name="Trazado 817" transform="translate(-590.038 -175.39)"/>
            </g>
            <path id="Trazado_818" d="M603.207 181.244a1.816 1.816 0 1 1-1.816-1.817 1.817 1.817 0 0 1 1.816 1.817z" class="cls-23" data-name="Trazado 818" transform="translate(-596.281 -178.033)"/>
            <path id="Trazado_819" d="M602.435 181.719a.729.729 0 1 1-.729-.729.729.729 0 0 1 .729.729z" class="cls-10" data-name="Trazado 819" transform="translate(-597.201 -179.057)"/>
        </g>
        <g id="Grupo_69" data-name="Grupo 69" transform="translate(314.317 156.224)">
            <path id="Trazado_820" d="M354.759 212.836H346.7a.569.569 0 0 0-.569.569v5.25a.569.569 0 0 0 .569.569h.733l1.827 1.2-.232-1.2h5.73a.569.569 0 0 0 .569-.569V213.4a.569.569 0 0 0-.568-.564z" class="cls-12" data-name="Trazado 820" transform="translate(-345.552 -212.836)"/>
            <g id="Grupo_68" data-name="Grupo 68" transform="translate(0 .019)">
                <path id="Trazado_821" d="M358.845 225.874a.673.673 0 1 1-.674-.673.674.674 0 0 1 .674.673z" class="cls-10" data-name="Trazado 821" transform="translate(-352.993 -220.951)"/>
                <g id="Grupo_67" data-name="Grupo 67">
                    <g id="Grupo_66" class="cls-24" data-name="Grupo 66">
                        <g id="Grupo_65" data-name="Grupo 65" transform="translate(1.369 1.115)">
                            <g id="Grupo_63" data-name="Grupo 63" transform="translate(1.514 1.514)">
                                <path id="Trazado_822" d="M355.1 225.095a2.294 2.294 0 1 1 2.294-2.294 2.3 2.3 0 0 1-2.294 2.294zm0-3.95a1.656 1.656 0 1 0 1.656 1.656 1.657 1.657 0 0 0-1.656-1.656z" class="cls-10" data-name="Trazado 822" transform="translate(-352.804 -220.507)"/>
                            </g>
                            <g id="Grupo_64" data-name="Grupo 64">
                                <path id="Trazado_823" d="M352.226 223.738a3.808 3.808 0 1 1 3.808-3.808 3.813 3.813 0 0 1-3.808 3.808zm0-6.978a3.17 3.17 0 1 0 3.17 3.17 3.173 3.173 0 0 0-3.17-3.171z" class="cls-10" data-name="Trazado 823" transform="translate(-348.418 -216.121)"/>
                            </g>
                        </g>
                    </g>
                </g>
            </g>
        </g>
        <g id="Grupo_78" data-name="Grupo 78" transform="translate(350.451 139.998)">
            <g id="Grupo_70" data-name="Grupo 70">
                <path id="Rectángulo_1585" d="M2 0h7.154a2 2 0 0 1 2 2v3.749a2 2 0 0 1-2 2H2a2 2 0 0 1-2-2V2a2 2 0 0 1 2-2z" class="cls-12" data-name="Rectángulo 1585"/>
                <path id="Trazado_825" d="M470.736 187.768l-.316 1.632 2.487-1.632" class="cls-12" data-name="Trazado 825" transform="translate(-463.062 -180.198)"/>
            </g>
            <g id="Grupo_77" data-name="Grupo 77" transform="translate(3.16 1.417)">
                <g id="Grupo_71" data-name="Grupo 71">
                    <path id="Trazado_826" d="M460.807 175.042a2.547 2.547 0 1 1 2.547-2.547 2.549 2.549 0 0 1-2.547 2.547zm0-4.835a2.288 2.288 0 1 0 2.288 2.288 2.29 2.29 0 0 0-2.288-2.288z" class="cls-10" data-name="Trazado 826" transform="translate(-458.26 -169.948)"/>
                </g>
                <g id="Grupo_72" data-name="Grupo 72" transform="translate(1.407)">
                    <path id="Trazado_827" d="M463.475 175.042c-.639 0-1.14-1.119-1.14-2.547s.5-2.547 1.14-2.547 1.139 1.119 1.139 2.547-.501 2.547-1.139 2.547zm0-4.835c-.416 0-.881.939-.881 2.288s.464 2.288.881 2.288.88-.939.88-2.288-.464-2.288-.88-2.288z" class="cls-10" data-name="Trazado 827" transform="translate(-462.335 -169.948)"/>
                </g>
                <g id="Grupo_73" data-name="Grupo 73" transform="translate(.129 2.417)">
                    <path id="Rectángulo_1586" d="M0 0h4.835v.259H0z" class="cls-10" data-name="Rectángulo 1586"/>
                </g>
                <g id="Grupo_76" data-name="Grupo 76" transform="translate(.63 .906)">
                    <g id="Grupo_74" data-name="Grupo 74">
                        <path id="Trazado_828" d="M462 173.265a2.712 2.712 0 0 1-1.916-.513l.186-.18-.093.09.092-.091a3.659 3.659 0 0 0 3.462 0l.185.181a2.713 2.713 0 0 1-1.916.513z" class="cls-10" data-name="Trazado 828" transform="translate(-460.086 -172.571)"/>
                    </g>
                    <g id="Grupo_75" data-name="Grupo 75" transform="translate(0 2.588)">
                        <path id="Trazado_829" d="M460.271 180.761l-.185-.181a3.835 3.835 0 0 1 3.832 0l-.186.18a3.661 3.661 0 0 0-3.461 0z" class="cls-10" data-name="Trazado 829" transform="translate(-460.086 -180.067)"/>
                    </g>
                </g>
            </g>
        </g>
        <g id="Grupo_84" data-name="Grupo 84" transform="translate(379.888 127.596)">
            <g id="Grupo_79" data-name="Grupo 79">
                <rect id="Rectángulo_1587" width="17.791" height="12.359" class="cls-12" data-name="Rectángulo 1587" rx="3.188"/>
                <path id="Trazado_830" d="M568.866 164.9l-.5 2.6 3.966-2.6" class="cls-12" data-name="Trazado 830" transform="translate(-556.624 -152.822)"/>
            </g>
            <g id="Grupo_83" data-name="Grupo 83" transform="translate(2.896 2.787)">
                <g id="Grupo_80" data-name="Grupo 80" transform="translate(5.671)">
                    <path id="Trazado_831" d="M562.34 144.323a3.164 3.164 0 1 1 3.165-3.164 3.168 3.168 0 0 1-3.165 3.164zm0-4.972a1.808 1.808 0 1 0 1.809 1.808 1.81 1.81 0 0 0-1.809-1.808z" class="cls-10" data-name="Trazado 831" transform="translate(-559.176 -137.994)"/>
                </g>
                <g id="Grupo_81" data-name="Grupo 81" transform="translate(0 2.486)">
                    <path id="Trazado_832" d="M544.109 147.968h-1.357v-2.774h6.348v1.356h-4.992z" class="cls-10" data-name="Trazado 832" transform="translate(-542.753 -145.195)"/>
                </g>
                <g id="Grupo_82" data-name="Grupo 82" transform="translate(2.104 3.164)">
                    <path id="Rectángulo_1588" d="M0 0h1.357v1.581H0z" class="cls-10" data-name="Rectángulo 1588"/>
                </g>
            </g>
        </g>
    </g>
</svg>
