<?xml version="1.0" encoding="utf-8"?>
<!-- Generator: Adobe Illustrator 19.0.0, SVG Export Plug-In . SVG Version: 6.00 Build 0)  -->
<svg version="1.1" id="Layer_1" xmlns="http://www.w3.org/2000/svg" xmlns:xlink="http://www.w3.org/1999/xlink" x="0px" y="0px"
	 viewBox="-49 141 512 512" style="enable-background:new -49 141 512 512;" xml:space="preserve">
<style type="text/css">
	.st0{fill:#2E71A7;}
	.st1{fill:#48B19B;}
	.st2{opacity:0.6;fill:#253744;enable-background:new    ;}
</style>
<g>
	<circle class="st0" cx="207" cy="397" r="256"/>
	<path class="st1" d="M463,397c0-51.4-15.1-99.2-41.2-139.3c0,0-14.6,21.3-11.9,35c2.7,13.7,18.9,14.8,17.2,24.8
		c-1.7,10.1-13.5-2.9-28.2,23.6c-14.6,26.5-7.3,63.1,13.7,65.8C433.7,409.8,463,397,463,397z"/>
	<path class="st1" d="M274.2,149.9c29.8,8.1,57.4,21.4,81.9,39c0,0-29.7-4.9-40.9,5.2c-11.2,10.1-27.6,33.8-40.9,0
		C260.9,160.2,274.2,149.9,274.2,149.9z"/>
	<path class="st1" d="M14.5,228.2C61.4,174.8,130.3,141,207,141c0,0-17.4,10.5,15.5,28.3c32.9,17.8,17.8,26.1,11,31.5
		c-6.9,5.5-18.7-11-26.5-21.9c-7.8-11-41.1-27.9-66.7-18.7c-25.6,9.1-47.5,15.9-43.9,24.4c3.7,8.5,47.5-7.9,64-7
		c16.5,0.9,11,11-4.6,22.9c-15.5,11.9-17.4,26.5-0.9,35.7c16.5,9.1,36.6,10.1,41.1,4.6c4.6-5.5-8.2-41.1,22.9-25.6
		s56.7,24.7,31.1,47.5c-25.6,22.9-54.9,48.5-55.8,63.1c-0.9,14.6,9.1,26.5,3.7,27.4c-5.5,0.9-10.5-5.9-14.2-11
		c-3.7-5-20.6-6.9-28.8-3.7c-8.2,3.2-23.8,15.5-15.1,27.4c8.7,11.9,20.6,6.4,32.5,11.9c11.9,5.5,23,26.4,20.7,31.1
		c-2.3,4.7-12.4-1.3-20.7-17.4c-8.3-16.1-23.8-5.5-34.8-8.2c-10.9-2.7-19.2-4.6-30.1-23.8c-11-19.2-33.7-24.6-43-35.7
		c-26.6-31.8-24.7-55.8-30.2-66.7C28.7,246.1,14.5,228.2,14.5,228.2z"/>
	<path class="st1" d="M231.7,400.7c0,0,27.4,2.7,41.1,14.6c13.7,11.9,15.5,16.5,36.6,21c21,4.6,30.2,16.5,16.5,39.3
		c-13.7,22.9-38.4,59.4-50.3,70.4c-11.9,11-26.5,20.1-32,38.4c-5.5,18.3-7.3,29.2,4.6,36.6c0,0-6.4,15.5-21-4.6
		c-14.6-20.1-2.7-43.9,0-57.6c2.7-13.7,10.1-54.9,5.5-64.9c-4.6-10.1-25.6-16.5-31.1-37.5C196,435.4,205.6,394.5,231.7,400.7z"/>
	<path class="st2" d="M26,216c100-100,262.1-100,362,0c100,100,100,262.1,0,362c0,0,116.1-153.6-48.3-318C175.3,95.5,26,216,26,216z
		"/>
</g>
</svg>
