<?xml version="1.0" encoding="utf-8"?>
<!-- Generator: Adobe Illustrator 19.0.0, SVG Export Plug-In . SVG Version: 6.00 Build 0)  -->
<svg version="1.1" id="Layer_1" xmlns="http://www.w3.org/2000/svg" xmlns:xlink="http://www.w3.org/1999/xlink" x="0px" y="0px"
	 viewBox="-49 141 512 512" style="enable-background:new -49 141 512 512;" xml:space="preserve">
<style type="text/css">
	.st0{fill:#FFAB5F;}
	.st1{fill:#78B591;}
	.st2{fill:#B0CE6F;}
	.st3{fill:#659B7B;}
	.st4{fill:#7E8E51;}
	.st5{fill:#8E2727;}
	.st6{fill:#C14616;}
	.st7{opacity:0.1;enable-background:new    ;}
	.st8{fill:#FFE783;}
	.st9{fill:#FFF4BD;}
	.st10{fill:#F7E07C;}
	.st11{fill:#F2D8A0;}
	.st12{fill:#FCE9C3;}
	.st13{fill:#B3B3B3;}
	.st14{fill:#CCCCCC;}
</style>
<g>
	<circle class="st0" cx="96.2" cy="434.4" r="31"/>
	<circle class="st0" cx="310.2" cy="434.4" r="31"/>
</g>
<path class="st1" d="M179.7,329.8c5.6-13.8,18.3-23.6,33.1-25.5c4-0.5,7.9,1.1,10.4,4.2c9.3,11.7,11.6,27.6,5.9,41.4
	c-5.6,13.8-18.3,23.6-33.1,25.5c-4,0.5-7.9-1.1-10.4-4.2C176.3,359.5,174,343.6,179.7,329.8z"/>
<path class="st2" d="M135,380.7c-13.8-5.6-23.6-18.3-25.5-33.1c-0.5-4,1.1-7.9,4.2-10.4c11.7-9.3,27.6-11.6,41.4-5.9
	c13.8,5.6,23.6,18.3,25.5,33.1c0.5,4-1.1,7.9-4.2,10.4C164.7,384.1,148.8,386.3,135,380.7z"/>
<path class="st3" d="M185.3,394.8c-1,0-2-0.2-3-0.6c-4.1-1.7-6.1-6.4-4.4-10.5l18.8-46.3c1.7-4.1,6.4-6.1,10.5-4.4
	c4.1,1.7,6.1,6.4,4.4,10.5l-18.8,46.3C191.5,392.9,188.5,394.8,185.3,394.8z"/>
<path class="st4" d="M191.9,383.2c-1,0-2-0.2-3-0.6l-46.3-18.8c-4.1-1.7-6.1-6.4-4.4-10.5c1.7-4.1,6.4-6.1,10.5-4.4l46.3,18.8
	c4.1,1.7,6.1,6.4,4.4,10.5C198.2,381.2,195.1,383.2,191.9,383.2z"/>
<path class="st5" d="M262.5,409.5c0-16.9-13.7-30.6-30.6-30.6c-1.6,0-3.1,0.1-4.6,0.3c-4.5-11.2-15.5-19.2-28.4-19.2
	c-12.8,0-23.7,7.8-28.3,18.9c-0.8-0.1-1.5-0.1-2.3-0.1c-16.9,0-30.6,13.7-30.6,30.6c0,0.1,0,0.3,0,0.4
	c-12.1,2.2-21.2,12.8-21.2,25.5c0,14.3,11.6,25.9,25.9,25.9c12.7,0,107.3,0,120.2,0c14.3,0,25.9-11.6,25.9-25.9
	C288.4,421.1,276.8,409.5,262.5,409.5z"/>
<path class="st6" d="M234.2,409.8h-4.1c-4.5,0-8.1-3.6-8.1-8.1s3.6-8.1,8.1-8.1h4.1c4.5,0,8.1,3.6,8.1,8.1
	C242.3,406.2,238.7,409.8,234.2,409.8z"/>
<path class="st7" d="M149.9,446.5c0-12.7,9.1-23.3,21.2-25.5c0-0.1,0-0.3,0-0.4c0-16.9,13.7-30.6,30.6-30.6c0.8,0,1.6,0,2.3,0.1
	c3.5-8.4,10.6-14.9,19.4-17.6c-5.6-7.5-14.5-12.4-24.6-12.4c-12.8,0-23.7,7.8-28.3,18.9c-0.8-0.1-1.5-0.1-2.3-0.1
	c-16.9,0-30.6,13.7-30.6,30.6c0,0.1,0,0.3,0,0.4c-12.1,2.2-21.2,12.8-21.2,25.5c0,14.3,11.6,25.9,25.9,25.9c2.1,0,6.4,0,12.3,0
	C151.6,457.1,149.9,452,149.9,446.5z"/>
<path class="st0" d="M199.4,392.1h-4.1c-4.5,0-8.1-3.6-8.1-8.1c0-4.5,3.6-8.1,8.1-8.1h4.1c4.5,0,8.1,3.6,8.1,8.1
	S203.9,392.1,199.4,392.1z"/>
<path class="st6" d="M187.1,416.9H183c-4.5,0-8.1-3.6-8.1-8.1c0-4.5,3.6-8.1,8.1-8.1h4.1c4.5,0,8.1,3.6,8.1,8.1
	C195.2,413.2,191.5,416.9,187.1,416.9z"/>
<g>
	<path class="st0" d="M223,434.5h-4.1c-4.5,0-8.1-3.6-8.1-8.1c0-4.5,3.6-8.1,8.1-8.1h4.1c4.5,0,8.1,3.6,8.1,8.1
		C231.1,430.9,227.5,434.5,223,434.5z"/>
	<path class="st0" d="M155.3,434.5h-4.1c-4.5,0-8.1-3.6-8.1-8.1c0-4.5,3.6-8.1,8.1-8.1h4.1c4.5,0,8.1,3.6,8.1,8.1
		C163.3,430.9,159.7,434.5,155.3,434.5z"/>
</g>
<path class="st8" d="M419.3,511.2c0,35.7-29,64.7-64.7,64.7H115.4c-35.7,0-64.7-29-64.7-64.7l0,0c0-35.7,29-64.7,64.7-64.7h239.3
	C390.4,446.5,419.3,475.5,419.3,511.2L419.3,511.2z"/>
<path class="st9" d="M115.4,554.3c-23.8,0-43.1-19.3-43.1-43.1c0-23.8,19.3-43.1,43.1-43.1h239.3c23.8,0,43.1,19.3,43.1,43.1
	c0,23.8-19.3,43.1-43.1,43.1H115.4z"/>
<path class="st10" d="M115.4,532.7c-11.9,0-21.6-9.7-21.6-21.6c0-11.9,9.7-21.6,21.6-21.6h239.3c11.9,0,21.6,9.7,21.6,21.6
	c0,11.9-9.7,21.6-21.6,21.6H115.4z"/>
<path class="st8" d="M331,534.7c0,29.8-24.1,53.9-53.9,53.9h-79.8c-29.8,0-53.9-24.1-53.9-53.9l0,0c0-29.8,24.1-53.9,53.9-53.9h79.8
	C306.8,480.8,331,504.9,331,534.7L331,534.7z"/>
<path class="st9" d="M197.3,567c-17.8,0-32.3-14.5-32.3-32.3c0-17.8,14.5-32.3,32.3-32.3h79.8c17.8,0,32.3,14.5,32.3,32.3
	S294.9,567,277.1,567H197.3z"/>
<path class="st8" d="M197.3,545.5c-5.9,0-10.8-4.8-10.8-10.8c0-5.9,4.8-10.8,10.8-10.8h79.8c5.9,0,10.8,4.8,10.8,10.8
	c0,5.9-4.8,10.8-10.8,10.8H197.3z"/>
<path class="st10" d="M182.2,500.4c0,29.8-24.1,53.9-53.9,53.9H48.5c-29.8,0-53.9-24.1-53.9-53.9l0,0c0-29.8,24.1-53.9,53.9-53.9
	h79.8C158.1,446.5,182.2,470.6,182.2,500.4L182.2,500.4z"/>
<path class="st9" d="M48.5,532.7c-17.8,0-32.3-14.5-32.3-32.3s14.5-32.3,32.3-32.3h79.8c17.8,0,32.3,14.5,32.3,32.3
	s-14.5,32.3-32.3,32.3H48.5z"/>
<path class="st8" d="M48.5,511.2c-5.9,0-10.8-4.8-10.8-10.8s4.8-10.8,10.8-10.8h79.8c5.9,0,10.8,4.8,10.8,10.8s-4.8,10.8-10.8,10.8
	L48.5,511.2L48.5,511.2z"/>
<path class="st11" d="M48.5,359.7H20.7c-24.1,0-43.8-19.6-43.8-43.8c0-24.1,19.6-43.8,43.8-43.8h26.6c4.5,0,8.1,3.6,8.1,8.1
	s-3.6,8.1-8.1,8.1H20.7C5.4,288.3-7,300.7-7,316c0,15.2,12.4,27.6,27.6,27.6h27.9c4.5,0,8.1,3.6,8.1,8.1
	C56.6,356.1,53,359.7,48.5,359.7z"/>
<path class="st12" d="M116.4,288.3H85.3c-4.5,0-8.1-3.6-8.1-8.1s3.6-8.1,8.1-8.1h31.2c17.5,0,31.8-14.3,31.8-31.8
	c0-17.5-14.3-31.8-31.8-31.8H81.2c-4.5,0-8.1-3.6-8.1-8.1c0-4.5,3.6-8.1,8.1-8.1h35.2c26.5,0,48,21.5,48,48
	C164.4,266.8,142.9,288.3,116.4,288.3z"/>
<path class="st11" d="M379,326.3h-64.2c-13.4,0-24.3-10.9-24.3-24.3c0-13.4,10.9-24.3,24.3-24.3h22.3c4.5,0,8.1-3.6,8.1-8.1
	c0-4.5-3.6-8.1-8.1-8.1h-22.3c-22.3,0-40.4,18.1-40.4,40.4s18.1,40.4,40.4,40.4H379c10.5,0,19,8.5,19,19v17.6c0,4.5,3.6,8.1,8.1,8.1
	c4.5,0,8.1-3.6,8.1-8.1v-17.6C414.2,342.1,398.4,326.3,379,326.3z"/>
<path class="st13" d="M22.4,559.5c8.5,24.5,31.8,42.1,59.2,42.1h250.7c27.4,0,50.7-17.6,59.2-42.1H22.4z"/>
<path class="st7" d="M66.1,559.5H22.4c8.5,24.5,31.8,42.1,59.2,42.1h43.7C97.9,601.6,74.6,584,66.1,559.5z"/>
<path class="st14" d="M463,553.6c0,9.4-7.7,17.1-17.1,17.1H-31.9c-9.4,0-17.1-7.7-17.1-17.1l0,0c0-9.4,7.7-17.1,17.1-17.1h477.8
	C455.3,536.5,463,544.1,463,553.6L463,553.6z"/>
<path class="st7" d="M-5.3,553.6c0-9.4,7.7-17.1,17.1-17.1h-43.7c-9.4,0-17.1,7.7-17.1,17.1c0,9.4,7.7,17.1,17.1,17.1h43.7
	C2.3,570.7-5.3,563-5.3,553.6z"/>
</svg>
