<svg xmlns="http://www.w3.org/2000/svg" width="21.739" height="20" viewBox="0 0 21.739 20">
    <defs>
        <style>
            .cls-1{fill:#d75a4a}
        </style>
    </defs>
    <path id="like" d="M10.8 5.533A5.686 5.686 0 0 1 16.017 2c3.14 0 5.4 2.687 5.687 5.888a5.86 5.86 0 0 1-.184 2.226 9.841 9.841 0 0 1-3 5L10.8 22l-7.582-6.885a9.839 9.839 0 0 1-3-5 5.86 5.86 0 0 1-.183-2.227C.319 4.687 2.581 2 5.721 2A5.509 5.509 0 0 1 10.8 5.533z" class="cls-1" transform="translate(0 -2)"/>
</svg>
