<svg id="Capa_1" data-name="Capa 1" xmlns="http://www.w3.org/2000/svg" viewBox="0 0 22.46 30.5"><defs><style>.cls-1{fill:#2e71a7;}</style></defs><title>location</title><path class="cls-1" d="M13.22,1.41A11.25,11.25,0,0,0,2,12.64a11,11,0,0,0,1,4.59c2.81,6.14,8.19,12.63,9.78,14.47a.63.63,0,0,0,.47.21.64.64,0,0,0,.47-.21c1.59-1.84,7-8.33,9.78-14.47a11,11,0,0,0,1-4.59A11.25,11.25,0,0,0,13.22,1.41Zm0,17.07a5.84,5.84,0,1,1,5.83-5.84A5.84,5.84,0,0,1,13.22,18.48Z" transform="translate(-1.99 -1.41)"/></svg>