<svg xmlns="http://www.w3.org/2000/svg" id="baseline-lock-24px" width="22" height="22" viewBox="0 0 22 22">
    <defs>
        <style>
            .cls-1{fill:none}.cls-2{fill:#2e71a7}
        </style>
    </defs>
    <path id="Trazado_664" d="M0 0h22v22H0z" class="cls-1" data-name="Trazado 664"/>
    <path id="Trazado_665" d="M16.25 7.333h-.875V5.524A4.453 4.453 0 0 0 11 1a4.453 4.453 0 0 0-4.375 4.524v1.81H5.75A1.786 1.786 0 0 0 4 9.143v9.047A1.786 1.786 0 0 0 5.75 20h10.5A1.786 1.786 0 0 0 18 18.19V9.143a1.786 1.786 0 0 0-1.75-1.81zM11 15.476a1.811 1.811 0 1 1 1.75-1.81 1.786 1.786 0 0 1-1.75 1.81zm2.713-8.143H8.287V5.524a2.714 2.714 0 1 1 5.425 0z" class="cls-2" data-name="Trazado 665"/>
</svg>
