<svg xmlns="http://www.w3.org/2000/svg" id="baseline-face-24px" width="33" height="33" viewBox="0 0 33 33">
    <defs>
        <style>
            .cls-1{fill:#9ba5a7}.cls-2{fill:none}
        </style>
    </defs>
    <path id="Trazado_662" d="M11.59 15.357a1.712 1.712 0 1 0 1.71 1.713 1.713 1.713 0 0 0-1.71-1.713zm8.22 0a1.712 1.712 0 1 0 1.712 1.712 1.713 1.713 0 0 0-1.712-1.712zM15.7 2a13.7 13.7 0 1 0 13.7 13.7A13.7 13.7 0 0 0 15.7 2zm0 24.66A10.975 10.975 0 0 1 4.74 15.7a11.107 11.107 0 0 1 .069-1.178 13.785 13.785 0 0 0 7.138-7.357 13.664 13.664 0 0 0 11.179 5.8 13.372 13.372 0 0 0 3.082-.356A10.943 10.943 0 0 1 15.7 26.66z" class="cls-1" data-name="Trazado 662" transform="translate(.8 .8)"/>
    <path id="Trazado_663" d="M0 0h33v33H0z" class="cls-2" data-name="Trazado 663"/>
</svg>
