<?xml version="1.0" encoding="utf-8"?>
<!-- Generator: Adobe Illustrator 19.0.0, SVG Export Plug-In . SVG Version: 6.00 Build 0)  -->
<svg version="1.1" id="Layer_1" xmlns="http://www.w3.org/2000/svg" xmlns:xlink="http://www.w3.org/1999/xlink" x="0px" y="0px"
	 viewBox="-49 141 512 512" style="enable-background:new -49 141 512 512;" xml:space="preserve">
<style type="text/css">
	.st0{fill:#7E5C62;}
	.st1{fill:#996459;}
	.st2{fill:#BA7958;}
	.st3{fill:#EDA247;}
	.st4{fill:#FFE671;}
</style>
<g>
	<g>
		<path class="st0" d="M282.8,249c-6.6,0-12-3.6-12-8v-32c0-4.4,5.4-8,12-8s12,3.6,12,8v32C294.8,245.4,289.4,249,282.8,249z"/>
	</g>
</g>
<g>
	<g>
		<path class="st0" d="M130.8,249c-6.6,0-12-3.6-12-8v-32c0-4.4,5.4-8,12-8s12,3.6,12,8v32C142.8,245.4,137.4,249,130.8,249z"/>
	</g>
</g>
<g>
	<path class="st1" d="M439,441H-25c-4.4,0-8,3.6-8,8v136c0,22.1,17.9,40,40,40h400c22.1,0,40-17.9,40-40V449
		C447,444.6,443.4,441,439,441z"/>
</g>
<g>
	<path class="st2" d="M423,241H-9c-22.1,0-40,17.9-40,40v139.2c0,16.1,9.7,30.6,24.6,37C41.5,485.2,111.1,501,183,503.9h48
		c0.1,0,0.2,0,0.3,0c71.5-2.9,141.2-18.7,207.1-46.7c15-6.4,24.6-20.9,24.6-37V281C463,258.9,445.1,241,423,241z"/>
</g>
<g>
	<path class="st0" d="M303,417c0-17.6-14.4-32-32-32H143c-17.6,0-32,14.4-32,32v79.4c23.7,3.9,47.7,6.5,72,7.5h48c0.1,0,0.2,0,0.3,0
		c24.1-1,48-3.6,71.7-7.5V417z"/>
</g>
<g>
	<path class="st3" d="M215,529h-16c-8.8,0-16-7.2-16-16v-32c0-8.8,7.2-16,16-16h16c8.8,0,16,7.2,16,16v32
		C231,521.8,223.8,529,215,529z"/>
</g>
<g>
	<path class="st1" d="M295,212.7c-1.5,0-3.1-0.2-4.6-0.7c-24-7.2-52.9-11.1-83.4-11.1s-59.4,3.8-83.4,11.1
		c-8.5,2.6-17.4-2.2-19.9-10.7c-2.5-8.5,2.2-17.4,10.7-19.9c27-8.1,59-12.4,92.6-12.4s65.6,4.3,92.6,12.4
		c8.5,2.5,13.3,11.5,10.7,19.9C308.2,208.3,301.9,212.7,295,212.7z"/>
</g>
<g>
	<path class="st4" d="M222.8,465h-32c-4.4,0-8,3.6-8,8v16c0,8.8,7.2,16,16,16h16c8.8,0,16-7.2,16-16v-16
		C230.8,468.6,227.2,465,222.8,465z"/>
</g>
</svg>
