<?xml version="1.0" encoding="utf-8"?>
<!-- Generator: Adobe Illustrator 19.0.0, SVG Export Plug-In . SVG Version: 6.00 Build 0)  -->
<svg version="1.1" id="Layer_1" xmlns="http://www.w3.org/2000/svg" xmlns:xlink="http://www.w3.org/1999/xlink" x="0px" y="0px"
	 viewBox="-49 141 512 512" style="enable-background:new -49 141 512 512;" xml:space="preserve">
<style type="text/css">
	.st0{fill:#EFF2FA;}
	.st1{fill:#D7DEED;}
	.st2{fill:#C7CFE2;}
	.st3{fill:#EDA247;}
	.st4{fill:#FFD782;}
	.st5{fill:#FFFFFF;}
	.st6{fill:#707487;}
</style>
<path class="st0" d="M339.4,264.6H-31.3c-9.8,0-17.7,7.9-17.7,17.7v353.1c0,9.8,7.9,17.7,17.7,17.7h370.8c9.8,0,17.7-7.9,17.7-17.7
	V282.2C357.1,272.5,349.2,264.6,339.4,264.6z"/>
<g>
	<path class="st1" d="M357.1,282.2c0-9.8-7.9-17.7-17.7-17.7h-11L163.1,429.9l-15.6,34.3l-10.7,23.6c-1.7,3.7,2.1,7.5,5.8,5.8
		l16.8-7.7l41.1-18.7l156.5-156.5V282.2z"/>
	<path class="st1" d="M65.8,335.2H-4.9c-4.9,0-8.8-4-8.8-8.8l0,0c0-4.9,4-8.8,8.8-8.8h70.6c4.9,0,8.8,4,8.8,8.8l0,0
		C74.6,331.3,70.6,335.2,65.8,335.2z"/>
	<path class="st1" d="M312.9,335.2h-26.5c-4.9,0-8.8-4-8.8-8.8l0,0c0-4.9,4-8.8,8.8-8.8h26.5c4.9,0,8.8,4,8.8,8.8l0,0
		C321.8,331.3,317.8,335.2,312.9,335.2z"/>
</g>
<path class="st2" d="M251.1,335.2H101.1c-4.9,0-8.8-4-8.8-8.8l0,0c0-4.9,4-8.8,8.8-8.8h150.1c4.9,0,8.8,4,8.8,8.8l0,0
	C260,331.3,256,335.2,251.1,335.2z"/>
<g>
	<path class="st1" d="M101.1,423.5H-4.9c-4.9,0-8.8-4-8.8-8.8l0,0c0-4.9,4-8.8,8.8-8.8h105.9c4.9,0,8.8,4,8.8,8.8l0,0
		C109.9,419.5,105.9,423.5,101.1,423.5z"/>
	<path class="st1" d="M56.9,467.6H-4.9c-4.9,0-8.8-4-8.8-8.8l0,0c0-4.9,4-8.8,8.8-8.8h61.8c4.9,0,8.8,4,8.8,8.8l0,0
		C65.8,463.7,61.8,467.6,56.9,467.6z"/>
	<path class="st1" d="M312.9,467.6H171.7c-4.9,0-8.8-4-8.8-8.8l0,0c0-4.9,4-8.8,8.8-8.8h141.2c4.9,0,8.8,4,8.8,8.8l0,0
		C321.8,463.7,317.8,467.6,312.9,467.6z"/>
	<path class="st1" d="M312.9,423.5h-70.6c-4.9,0-8.8-4-8.8-8.8l0,0c0-4.9,4-8.8,8.8-8.8h70.6c4.9,0,8.8,4,8.8,8.8l0,0
		C321.8,419.5,317.8,423.5,312.9,423.5z"/>
</g>
<g>
	<path class="st2" d="M207,423.5h-70.6c-4.9,0-8.8-4-8.8-8.8l0,0c0-4.9,4-8.8,8.8-8.8H207c4.9,0,8.8,4,8.8,8.8l0,0
		C215.8,419.5,211.9,423.5,207,423.5z"/>
	<path class="st2" d="M127.6,379.3H-4.9c-4.9,0-8.8-4-8.8-8.8l0,0c0-4.9,4-8.8,8.8-8.8h132.4c4.9,0,8.8,4,8.8,8.8l0,0
		C136.4,375.4,132.4,379.3,127.6,379.3z"/>
	<path class="st2" d="M118.7,467.6H92.2c-4.9,0-8.8-4-8.8-8.8l0,0c0-4.9,4-8.8,8.8-8.8h26.5c4.9,0,8.8,4,8.8,8.8l0,0
		C127.6,463.7,123.6,467.6,118.7,467.6z"/>
</g>
<g>
	<path class="st1" d="M30.4,511.8H-4.9c-4.9,0-8.8-4-8.8-8.8l0,0c0-4.9,4-8.8,8.8-8.8h35.3c4.9,0,8.8,4,8.8,8.8l0,0
		C39.3,507.8,35.3,511.8,30.4,511.8z"/>
	<path class="st1" d="M198.2,555.9h-35.3c-4.9,0-8.8-4-8.8-8.8l0,0c0-4.9,4-8.8,8.8-8.8h35.3c4.9,0,8.8,4,8.8,8.8l0,0
		C207,551.9,203,555.9,198.2,555.9z"/>
	<path class="st1" d="M312.9,555.9h-79.4c-4.9,0-8.8-4-8.8-8.8l0,0c0-4.9,4-8.8,8.8-8.8h79.4c4.9,0,8.8,4,8.8,8.8l0,0
		C321.8,551.9,317.8,555.9,312.9,555.9z"/>
	<path class="st1" d="M312.9,511.8h-35.3c-4.9,0-8.8-4-8.8-8.8l0,0c0-4.9,4-8.8,8.8-8.8h35.3c4.9,0,8.8,4,8.8,8.8l0,0
		C321.8,507.8,317.8,511.8,312.9,511.8z"/>
</g>
<path class="st2" d="M242.3,511.8H65.8c-4.9,0-8.8-4-8.8-8.8l0,0c0-4.9,4-8.8,8.8-8.8h176.6c4.9,0,8.8,4,8.8,8.8l0,0
	C251.1,507.8,247.2,511.8,242.3,511.8z"/>
<g>
	<path class="st1" d="M101.1,600H-4.9c-4.9,0-8.8-4-8.8-8.8l0,0c0-4.9,4-8.8,8.8-8.8h105.9c4.9,0,8.8,4,8.8,8.8l0,0
		C109.9,596.1,105.9,600,101.1,600z"/>
	<path class="st1" d="M312.9,600h-61.8c-4.9,0-8.8-4-8.8-8.8l0,0c0-4.9,4-8.8,8.8-8.8h61.8c4.9,0,8.8,4,8.8,8.8l0,0
		C321.8,596.1,317.8,600,312.9,600z"/>
</g>
<g>
	<path class="st2" d="M215.8,600h-79.4c-4.9,0-8.8-4-8.8-8.8l0,0c0-4.9,4-8.8,8.8-8.8h79.4c4.9,0,8.8,4,8.8,8.8l0,0
		C224.7,596.1,220.7,600,215.8,600z"/>
	<path class="st2" d="M127.6,555.9H-4.9c-4.9,0-8.8-4-8.8-8.8l0,0c0-4.9,4-8.8,8.8-8.8h132.4c4.9,0,8.8,4,8.8,8.8l0,0
		C136.4,551.9,132.4,555.9,127.6,555.9z"/>
</g>
<path class="st1" d="M312.9,379.3H162.9c-4.9,0-8.8-4-8.8-8.8l0,0c0-4.9,4-8.8,8.8-8.8h150.1c4.9,0,8.8,4,8.8,8.8l0,0
	C321.8,375.4,317.8,379.3,312.9,379.3z"/>
<rect x="281.8" y="113.7" transform="matrix(0.7071 0.7071 -0.7071 0.7071 291.6579 -123.5812)" class="st3" width="26.5" height="353.1"/>
<rect x="300.5" y="132.4" transform="matrix(0.7071 0.7071 -0.7071 0.7071 310.3831 -131.3369)" class="st4" width="26.5" height="353.1"/>
<path class="st0" d="M447.9,193.5l-37.5-37.5l12.5-12.5c3.4-3.4,9-3.4,12.5,0l25,25c3.4,3.4,3.4,9,0,12.5L447.9,193.5z"/>
<g>
	<path class="st1" d="M429.2,174.8l-18.7-18.7l12.5-12.5c3.4-3.4,9-3.4,12.5,0l12.5,12.5L429.2,174.8z"/>
	<polygon class="st1" points="149.6,454.4 179.5,424.5 160.8,405.8 142.1,446.9 	"/>
</g>
<polygon class="st5" points="157.1,461.9 198.2,443.2 179.5,424.5 149.6,454.4 "/>
<path class="st6" d="M140.3,469.5l23.6-10.7l-18.7-18.7l-10.7,23.6C132.8,467.4,136.6,471.2,140.3,469.5z"/>
</svg>
