<svg xmlns="http://www.w3.org/2000/svg" width="21.74" height="20" viewBox="0 0 21.74 20">
    <defs>
        <style>
            .cls-1{fill:#2e71a7}
        </style>
    </defs>
    <g id="like_1_" data-name="like (1)" transform="translate(-186 116.174)">
        <path id="Caminho_4601" d="M21.7 7.79c-.317-3.456-2.79-5.963-5.884-5.963a5.86 5.86 0 0 0-5.006 2.856 5.646 5.646 0 0 0-4.89-2.857C2.826 1.826.353 4.333.037 7.789a6.086 6.086 0 0 0 .185 2.266 9.7 9.7 0 0 0 3.01 4.97l7.574 6.8 7.7-6.8a9.7 9.7 0 0 0 3.01-4.97A6.1 6.1 0 0 0 21.7 7.79zm-1 2.076a8.873 8.873 0 0 1-2.755 4.544l-7.14 6.3-7.017-6.3a8.879 8.879 0 0 1-2.753-4.544 5.318 5.318 0 0 1-.174-1.945l.006-.042c.272-3.028 2.4-5.226 5.052-5.226a4.9 4.9 0 0 1 4.5 3.109l.385.9.385-.9a5.051 5.051 0 0 1 4.628-3.108c2.655 0 4.78 2.2 5.057 5.265a5.312 5.312 0 0 1-.169 1.947z" class="cls-1" data-name="Caminho 4601" transform="translate(186 -118)"/>
    </g>
</svg>
